<?xml version="1.0" encoding="UTF-8" standalone="no"?>
<!-- Created with Inkscape (http://www.inkscape.org/) -->

<svg
   width="184.20972mm"
   height="76.322281mm"
   viewBox="0 0 184.20972 76.322281"
   version="1.1"
   id="svg1"
   xml:space="preserve"
   inkscape:export-filename="bitmaxp.svg"
   inkscape:export-xdpi="270.85919"
   inkscape:export-ydpi="270.85919"
   inkscape:version="1.3.2 (091e20e, 2023-11-25)"
   sodipodi:docname="emacs-mask.svg"
   xmlns:inkscape="http://www.inkscape.org/namespaces/inkscape"
   xmlns:sodipodi="http://sodipodi.sourceforge.net/DTD/sodipodi-0.dtd"
   xmlns="http://www.w3.org/2000/svg"
   xmlns:svg="http://www.w3.org/2000/svg"><sodipodi:namedview
     id="namedview1"
     pagecolor="#ffffff"
     bordercolor="#000000"
     borderopacity="0.25"
     inkscape:showpageshadow="2"
     inkscape:pageopacity="0.0"
     inkscape:pagecheckerboard="0"
     inkscape:deskcolor="#d1d1d1"
     inkscape:document-units="mm"
     inkscape:zoom="0.8392002"
     inkscape:cx="441.49179"
     inkscape:cy="490.34784"
     inkscape:window-width="1512"
     inkscape:window-height="916"
     inkscape:window-x="0"
     inkscape:window-y="38"
     inkscape:window-maximized="0"
     inkscape:current-layer="layer1"><inkscape:page
       x="0"
       y="5.6027704e-23"
       width="184.20972"
       height="76.322281"
       id="page2"
       margin="0"
       bleed="0" /></sodipodi:namedview><defs
     id="defs1" /><g
     inkscape:label="Layer 1"
     inkscape:groupmode="layer"
     id="layer1"
     style="display:inline"
     transform="translate(-16.695484,-57.809527)"><g
       id="g3"><g
         id="g221"
         inkscape:label="emacs"
         mask="none"
         style="display:inline"><path
           style="font-size:50.8px;font-family:'FOT-Yuruka Std';-inkscape-font-specification:'FOT-Yuruka Std';fill:#9955ff;stroke-width:0.00608541"
           d="m 66.067036,116.64669 c 0.7112,-0.0508 1.2192,-0.6604 1.2192,-1.3208 l -0.3556,-8.8392 c 0,-0.6096 -0.5588,-1.1684 -1.2192,-1.1684 h -0.1016 l -12.344399,0.6604 -0.254,-4.7244 h 8.432799 c 0.7112,0 1.2192,-0.5588 1.27,-1.270003 l 0.1016,-7.7724 v -0.1016 c 0,-0.6604 -0.6096,-1.1684 -1.2192,-1.1684 h -9.093199 l -0.254,-4.3688 11.836399,-0.6096 c 0.6096,-0.0508 1.1684,-0.6096 1.1684,-1.2192 v -0.1016 l -0.4064,-8.8392 c -0.0508,-0.6096 -0.6096,-1.1684 -1.2192,-1.1684 h -0.1016 l -13.512799,0.7112 h -0.2032 l -9.2456,0.508 c -0.6096,0 -1.1684,0.5588 -1.1684,1.1684 v 0.1016 l 2.0828,39.624003 c 0.0508,0.6096 0.5588,1.1684 1.1684,1.1684 h 0.1016 l 9.906,-0.508 c 0.0508,0 0.1524,-0.0508 0.2032,-0.0508 z"
           id="text1"
           transform="rotate(11.811129)"
           aria-label="E" /><path
           style="font-size:50.8px;font-family:'FOT-Yuruka Std';-inkscape-font-specification:'FOT-Yuruka Std';fill:#9955ff;stroke-width:0.00608541"
           d="m 89.270572,117.01606 c 0.5588,-0.0508 0.9652,-0.508 0.9652,-1.1176 l -0.9144,-18.135598 c 2.8956,0.4064 3.9624,2.438398 4.2164,7.924798 0.6096,10.0076 8.585198,11.5824 9.296398,11.5824 0.508,0 0.9652,-0.2032 1.524,-0.7112 0,0 4.318,-4.1148 4.318,-4.2164 0.3048,-0.254 0.4064,-0.5588 0.4064,-0.8128 0,-0.5588 -0.6096,-1.0668 -0.9144,-1.3208 -2.3876,-1.8796 -2.9464,-4.3688 -3.1496,-7.6708 -0.5588,-9.245598 -7.111998,-14.884398 -16.052798,-14.884398 -2.8448,0 -5.9436,0.5588 -9.1948,1.778 -1.9812,-0.762 -4.1148,-1.1176 -6.4008,-1.1176 -2.4384,0 -4.9784,0.4064 -7.5692,1.27 l -3.048,0.1524 c -0.508,0.0508 -0.9144,0.4572 -0.9144,1.016 v 0.1016 l 1.27,26.415998 c 0.0508,0.5588 0.4572,1.016 0.9652,1.016 h 0.1016 l 9.4996,-0.4572 c 0.5588,-0.0508 0.9652,-0.508 0.9652,-1.1176 l -0.9144,-18.440398 c 3.2004,0.254 4.2672,2.387598 4.5212,7.518398 l 0.508,10.7188 c 0.0508,0.5588 0.4572,1.016 0.9652,1.016 h 0.1016 z"
           id="use3"
           transform="rotate(5.1126842)"
           aria-label="m" /><path
           style="font-size:50.8px;font-family:'FOT-Yuruka Std';-inkscape-font-specification:'FOT-Yuruka Std';fill:#9955ff;stroke-width:0.00608541"
           d="m 132.5605,113.07507 c 0.1016,-0.2032 0.1524,-0.3556 0.1524,-0.4572 0,-0.508 -0.5588,-0.8128 -1.0668,-1.0668 -1.6256,-0.8636 -2.1844,-3.048 -2.1844,-6.096 0,-3.3528 0.7112,-7.772402 1.4224,-12.395202 v -0.254 c 0,-0.6096 -0.3556,-1.27 -1.6764,-1.3716 l -8.7884,-0.762 h -0.254 c -0.6096,0 -1.0668,0.1524 -1.3716,0.508 -1.9812,-0.8636 -4.4704,-1.4224 -7.0104,-1.4224 -10.0584,0 -14.376397,8.7884 -14.376397,14.884402 0,8.1788 7.315197,14.6812 15.798797,14.6812 2.5908,0 5.334,-0.6096 7.9756,-1.9812 2.54,2.3876 6.096,3.2004 6.604,3.2004 0.6604,0 1.1684,-0.4572 1.6256,-1.3208 z m -14.8844,-3.7084 c -1.1684,0.508 -2.286,0.7112 -3.2512,0.7112 -3.302,0 -5.2832,-2.4384 -5.2832,-5.2832 0,-2.5908 1.778,-5.689602 4.9784,-5.689602 1.4732,0 2.8448,0.7112 3.4544,1.727202 -0.1016,1.524 -0.1524,2.8956 -0.1524,4.2164 0,1.5748 0.1016,2.9972 0.254,4.318 z"
           id="text1-0"
           aria-label="a" /><path
           style="font-size:50.8px;font-family:'FOT-Yuruka Std';-inkscape-font-specification:'FOT-Yuruka Std';fill:#9955ff;stroke-width:0.00608541"
           d="m 192.81379,42.491709 c 0.0508,-0.1016 0.0508,-0.254 0.0508,-0.3556 0,-1.27 -4.064,-3.5052 -9.7028,-3.5052 -8.382,0 -17.47519,4.6228 -17.47519,16.002 0,8.9408 7.46759,14.8336 15.90039,14.8336 4.572,0 9.4488,-1.7272 13.5636,-5.6388 0.6096,-0.6096 0.8636,-1.1684 0.8636,-1.778 0,-0.3556 -0.1016,-0.7112 -0.254,-1.016 -0.8128,-1.6764 -1.4224,-2.5908 -2.3368,-4.318 -0.3556,-0.6096 -0.762,-0.8128 -1.1176,-0.8128 -0.4572,0 -0.9144,0.254 -1.2192,0.5588 -2.4384,2.2352 -4.9784,3.2004 -7.1628,3.2004 -3.302,0 -5.7404,-2.2352 -5.7404,-5.6388 0,-5.5372 4.4196,-5.842 5.7404,-5.842 1.778,0 3.556,0.5588 4.4704,1.3208 0.2032,0.1524 0.4572,0.254 0.6604,0.254 0.6096,0 1.1684,-0.508 1.3716,-1.1176 z"
           id="use5"
           transform="rotate(20.482507)"
           aria-label="c" /><path
           style="font-size:50.8px;font-family:'FOT-Yuruka Std';-inkscape-font-specification:'FOT-Yuruka Std';fill:#9955ff;stroke-width:0.00608541"
           d="m 174.13507,124.80702 c 6.8072,0 15.9004,-3.2512 15.9004,-9.2456 0,-1.9304 -1.016,-4.2164 -3.3528,-6.7564 -1.9304,-2.1336 -2.6924,-3.0988 -2.6924,-3.9624 0,-1.016 1.1684,-2.032 4.2164,-2.032 h 0.2032 c 0.6604,0 1.2192,-0.2032 1.2192,-0.762 0,-0.1524 0,-0.3048 -0.1016,-0.508 l -2.286,-5.8928 c -0.3556,-0.9144 -0.8636,-1.1176 -2.8448,-1.1176 -6.6548,0 -14.9352,3.048 -14.9352,8.7884 0,1.9304 0.9144,4.1148 3.1496,6.6548 l 1.3716,1.524 c 0.7112,0.9144 1.3716,1.7272 1.3716,2.3876 0,1.2192 -1.4224,2.6416 -4.4196,2.6924 -0.6096,0 -1.6256,0.1016 -1.6256,0.8636 0,0.1016 0.0508,0.254 0.1016,0.4064 l 2.2352,5.8928 c 0.3048,0.8636 0.8128,1.0668 1.9304,1.0668 z"
           id="text1-7"
           aria-label="s" /></g><g
         id="g220"
         inkscape:label="gnu"
         transform="translate(11.72169,6.2414744)"
         mask="none"
         style="display:inline"><path
           d="m 174.10012,27.435779 c -0.22578,0 -0.63218,0.112889 -0.63218,0.587022 v 0.04516 c 0.0903,2.05458 0.15804,4.31236 0.15804,6.344362 0,1.557868 -0.0226,3.002847 -0.11288,4.064004 -0.15805,1.919113 -1.67076,2.889959 -3.1609,2.889959 -1.44498,0 -2.8448,-0.903112 -2.93511,-2.731914 -0.11289,-2.506136 0,0.158044 -0.54187,-10.295477 -0.0226,-0.270934 -0.24835,-0.496712 -0.51929,-0.496712 h -0.0452 l -4.5833,0.225778 c -0.27093,0.02258 -0.49671,0.248356 -0.49671,0.541867 v 0.04516 l 0.56445,10.656722 c 0.27093,5.034849 4.28978,7.49583 8.42152,7.49583 4.24462,0 8.60214,-2.619025 9.00854,-7.834497 0.11289,-1.309513 0.13547,-2.867381 0.13547,-4.402671 0,-2.551292 -0.0903,-5.102583 -0.18063,-6.592718 -0.0226,-0.293512 -0.27093,-0.541867 -0.56444,-0.541867 z"
           id="text3"
           style="font-size:22.5778px;font-family:'FOT-Yuruka Std';-inkscape-font-specification:'FOT-Yuruka Std';fill:#5f5fd3;stroke-width:0.00608541"
           transform="rotate(14.033729)"
           aria-label="U" /><path
           d="m 87.573286,99.000513 c 0.225778,0 0.316089,0.112889 0.316089,0.316089 0,0.632179 -1.106312,2.212628 -3.341515,2.212628 -2.122313,0 -4.176893,-1.670761 -4.176893,-4.560719 0,-2.235202 1.196624,-4.741338 4.83165,-4.741338 0.948267,0 1.828802,0.2032 2.370669,0.474134 0.06773,0.04515 0.158044,0.06773 0.225778,0.06773 0.270933,0 0.496711,-0.2032 0.541867,-0.4064 l 0.767645,-3.793071 v -0.09031 c 0,-0.270934 -0.158044,-0.51929 -0.361245,-0.609601 -1.061156,-0.496711 -2.370669,-0.745067 -3.747915,-0.745067 -3.115736,0 -10.769611,1.73849 -10.769611,9.798765 0,6.163737 4.854228,9.843927 9.889077,9.843927 4.696183,0 9.34721,-3.20605 9.34721,-8.624725 0,-2.25778 -0.632179,-3.386671 -2.415825,-3.386671 -0.270934,0 -3.454403,0.135467 -5.915384,0.270934 -0.4064,0.02258 -0.699912,0.338667 -0.699912,0.677334 v 0.04516 l 0.04516,2.686758 c 0,0.338667 0.2032,0.699912 0.632178,0.699912 h 0.04516 c 0.541867,-0.02258 2.077158,-0.135467 2.348091,-0.135467 z"
           id="text2"
           style="font-size:22.5778px;font-family:'FOT-Yuruka Std';-inkscape-font-specification:'FOT-Yuruka Std';fill:#5f5fd3;stroke-width:0.00608541"
           transform="rotate(-15.734416)"
           aria-label="G" /><path
           d="m 147.35414,61.357266 c 0.31609,0 0.56444,-0.225778 0.56444,-0.51929 0.31609,-4.199471 0.92569,-17.068817 0.92569,-17.65584 0,-0.270934 -0.15804,-0.519289 -0.51929,-0.541867 l -4.33494,-0.270934 h -0.0452 c -0.27093,0 -0.51929,0.248356 -0.51929,0.51929 l -0.27093,9.23432 c 0,0.180623 -0.0452,0.316089 -0.13547,0.316089 -0.0677,0 -0.13547,-0.04516 -0.2032,-0.180622 -2.12231,-3.58987 -4.89938,-8.195742 -6.25405,-9.55041 -0.11289,-0.112889 -0.56445,-0.293511 -0.90311,-0.293511 h -0.0452 l -4.40267,0.2032 c -0.45156,0.02258 -0.6096,0.564445 -0.6096,0.812801 v 0.04516 l 0.97084,17.317174 c 0.0226,0.293511 0.29352,0.654756 0.63218,0.654756 h 0.0677 l 4.22204,-0.541867 c 0.56445,-0.06773 0.79023,-0.51929 0.79023,-0.767646 v -0.02258 l -1.15147,-9.618144 v -0.09031 c 0,-0.180622 0.0452,-0.270933 0.15804,-0.270933 0.0677,0 0.15805,0.04516 0.24836,0.180622 0.97085,1.219201 5.48641,9.618143 5.96054,10.363211 0.13547,0.2032 0.33867,0.428978 0.58702,0.428978 z"
           id="text2-1"
           style="font-size:22.5778px;font-family:'FOT-Yuruka Std';-inkscape-font-specification:'FOT-Yuruka Std';fill:#5f5fd3;stroke-width:0.00608541"
           transform="rotate(8.0497442)"
           aria-label="N" /></g><g
         id="g1"
         inkscape:label="magit"
         transform="translate(9.3968312,1.721159)"
         mask="none"><rect
           style="fill:#5f5fd3;fill-opacity:1;stroke:#766c85;stroke-width:0;stroke-linejoin:round;stroke-opacity:0.960784"
           id="rect221"
           width="20.520597"
           height="20.665106"
           x="65.687782"
           y="11.466089"
           ry="3.9740591"
           transform="rotate(44.835759)"
           sodipodi:type="rect" /><ellipse
           style="display:inline;fill:#f9f9f9;fill-opacity:1;stroke:#766c85;stroke-width:0;stroke-linejoin:round;stroke-opacity:0.960784"
           id="path221"
           cx="36.321884"
           cy="68.150475"
           rx="5.5881963"
           ry="1.542575" /><ellipse
           style="fill:#5f5fd3;fill-opacity:1;stroke:#766c85;stroke-width:0;stroke-linejoin:round;stroke-opacity:0.960784"
           id="path222"
           cx="36.35099"
           cy="68.121361"
           rx="3.2888863"
           ry="0.58210373" /><path
           style="fill:#5f5fd3;fill-opacity:1;stroke:#766c85;stroke-width:0;stroke-linejoin:round;stroke-opacity:0.960784"
           d="m 33.536182,64.562197 5.377026,-0.03425 -0.102746,3.561852 -5.171535,-0.03425 z"
           id="path226" /><text
           xml:space="preserve"
           style="font-size:4.53729px;font-family:'FOT-Yuruka Std';-inkscape-font-specification:'FOT-Yuruka Std';fill:#f9f9f9;fill-opacity:1;stroke:#766c85;stroke-width:0;stroke-linejoin:round;stroke-opacity:0.960784"
           x="31.479328"
           y="72.972771"
           id="text222"
           transform="scale(1.0674536,0.93680886)"><tspan
             sodipodi:role="line"
             id="tspan222"
             style="stroke-width:0"
             x="31.479328"
             y="72.972771">M</tspan></text><path
           style="display:inline;fill:#f9f9f9;fill-opacity:1;stroke:#766c85;stroke-width:0;stroke-linejoin:round;stroke-opacity:0.960784"
           d="m 33.091949,69.639346 -0.21249,5.406672 c 0,0 0.613859,1.015229 3.210951,0.991621 2.597093,-0.02359 3.58871,-0.991621 3.58871,-0.991621 l -0.259709,-5.430285 c 0,0 -1.180497,0.68469 -3.187341,0.708302 -2.006844,0.0236 -3.140121,-0.684689 -3.140121,-0.684689 z"
           id="path224" /><path
           style="fill:#5f5fd3;fill-opacity:1;stroke:#766c85;stroke-width:0;stroke-linejoin:round;stroke-opacity:0.960784"
           d="m 33.587758,70.324035 0.661078,0.188876 v 4.863647 l -0.873568,-0.33054 z"
           id="path225" /><text
           xml:space="preserve"
           style="font-size:3.09431px;font-family:'FOT-Yuruka Std';-inkscape-font-specification:'FOT-Yuruka Std';fill:#f9f9f9;fill-opacity:1;stroke:#766c85;stroke-width:0;stroke-linejoin:round;stroke-opacity:0.960784"
           x="36.261391"
           y="60.211647"
           id="text226"><tspan
             sodipodi:role="line"
             id="tspan226"
             style="font-style:normal;font-variant:normal;font-weight:900;font-stretch:normal;font-family:'FOT-Yuruka Std';-inkscape-font-specification:'FOT-Yuruka Std Heavy';fill:#f9f9f9;stroke-width:0"
             x="36.261391"
             y="60.211647">+</tspan></text><text
           xml:space="preserve"
           style="font-size:3.09431px;font-family:'FOT-Yuruka Std';-inkscape-font-specification:'FOT-Yuruka Std';fill:#f9f9f9;fill-opacity:1;stroke:#766c85;stroke-width:0;stroke-linejoin:round;stroke-opacity:0.960784"
           x="35.405079"
           y="64.767433"
           id="text226-9"><tspan
             sodipodi:role="line"
             id="tspan226-4"
             style="font-style:normal;font-variant:normal;font-weight:900;font-stretch:normal;font-family:'FOT-Yuruka Std';-inkscape-font-specification:'FOT-Yuruka Std Heavy';fill:#f9f9f9;stroke-width:0"
             x="35.405079"
             y="64.767433">+</tspan></text><text
           xml:space="preserve"
           style="font-style:normal;font-variant:normal;font-weight:900;font-stretch:normal;font-size:3.09431px;font-family:'FOT-Yuruka Std';-inkscape-font-specification:'FOT-Yuruka Std Heavy';fill:#f9f9f9;fill-opacity:1;stroke:#766c85;stroke-width:0;stroke-linejoin:round;stroke-opacity:0.960784"
           x="41.162518"
           y="62.25378"
           id="text227"><tspan
             sodipodi:role="line"
             id="tspan227"
             style="fill:#f9f9f9;stroke-width:0"
             x="41.162518"
             y="62.25378">-</tspan></text><path
           style="display:inline;fill:#f9f9f9;fill-opacity:1;stroke:#766c85;stroke-width:0;stroke-linejoin:round;stroke-opacity:0.960784"
           d="m 38.344372,61.355244 9.67972,9.638876 -0.612641,0.735168 -9.802248,-9.55719 z"
           id="path227" /><path
           style="fill:#5f5fd3;fill-opacity:1;stroke:#766c85;stroke-width:0;stroke-linejoin:round;stroke-opacity:0.960784"
           d="m 38.058473,62.090412 0.245055,-0.2859 2.186535,2.115124 -0.313086,0.284623 z"
           id="path228" /></g><g
         id="g2"
         transform="matrix(0.49146822,0,0,0.49146822,9.8302781,-43.582947)"
         inkscape:label="telega"><path
           style="display:inline;fill:#b380ff;fill-opacity:1;stroke:#766c85;stroke-width:0.00600001;stroke-linejoin:round;stroke-opacity:0.960784;paint-order:fill markers stroke"
           d="m 117.70008,241.68948 c 0,0 -2.83365,0.20734 -1.45138,2.48808 1.38227,2.28074 3.87035,6.15109 3.87035,6.15109 0,0 0.76024,0.62202 1.31315,0.62202 0.55291,0 19.90465,-1.10581 19.90465,-1.10581 l -18.03859,4.90705 8.29361,13.61533 c 0,0 1.17493,1.58962 2.34985,0.27647 1.17493,-1.31316 20.45756,-21.01048 20.45756,-21.01048 0,0 0.76025,-2.14252 -0.55291,-2.34986 -1.31315,-0.20734 -36.14629,-3.59389 -36.14629,-3.59389 z"
           id="path1" /><path
           style="display:inline;fill:#9955ff;fill-opacity:1;stroke:#766c85;stroke-width:0.00600001;stroke-linejoin:round;stroke-opacity:0.960784;paint-order:fill markers stroke"
           d="m 123.28128,254.79061 -3.90689,5.51561 c 0,0 -0.95757,2.33648 1.11078,2.14496 2.06835,-0.19151 6.81791,-0.99587 6.81791,-0.99587 z"
           id="path2" /></g><path
         d="m 92.144572,72.170142 c 0.135869,0 0.235507,-0.135869 0.244565,-0.262681 l 0.307971,-7.019934 v -0.01812 c 0,-0.09964 -0.05435,-0.22645 -0.226449,-0.235508 l -1.802538,-0.09058 h -0.01812 c -0.126812,0 -0.271739,0.07246 -0.307971,0.117753 -0.443841,0.525363 -1.295291,1.856886 -2.038046,3.134061 -0.01812,0.02717 -0.02717,0.04529 -0.04529,0.04529 -0.01811,0 -0.02717,-0.0091 -0.04529,-0.03623 -0.742755,-1.277175 -1.594205,-2.617756 -2.038046,-3.143119 -0.03623,-0.04529 -0.217391,-0.117753 -0.344203,-0.117753 h -0.01812 l -1.784422,0.09964 c -0.172102,0.01812 -0.226449,0.153986 -0.226449,0.253624 l 0.353261,7.010876 c 0,0.126812 0.09964,0.262681 0.244565,0.262681 h 0.0091 l 1.739132,-0.144927 c 0.199276,-0.01812 0.326088,-0.208334 0.326088,-0.307972 v -0.0091 L 86.0667,67.858502 v -0.06341 c 0,-0.05435 0.0091,-0.09058 0.02717,-0.09058 0.02717,0 0.05435,0.02717 0.09058,0.07246 0.172102,0.235508 0.833334,1.594205 1.286233,2.427539 0.05435,0.108696 0.144928,0.244565 0.307972,0.244565 l 0.932971,-0.03623 c 0.199276,-0.0091 0.298914,-0.135869 0.335146,-0.208333 0.443841,-0.833334 1.105073,-2.246379 1.268117,-2.472829 0.03623,-0.04529 0.06341,-0.07246 0.08152,-0.07246 0.02717,0 0.03623,0.03623 0.03623,0.09964 v 0.04529 l -0.425725,3.913047 v 0.0091 c 0,0.09964 0.09058,0.298914 0.289855,0.307972 l 1.83877,0.135869 z m 4.963776,-2.192031 c 0.09964,0 0.172102,-0.09058 0.172102,-0.181159 v -0.471015 c 0,-0.09964 -0.07246,-0.18116 -0.18116,-0.18116 l -3.251814,-0.0091 c -0.108696,0 -0.190218,0.09058 -0.190218,0.190218 v 0.461957 c 0,0.108696 0.08152,0.190217 0.190218,0.190217 z m 6.431152,1.539857 c 0.1087,-0.05435 0.1721,-0.13587 0.1721,-0.22645 0,-0.06341 -0.0272,-0.126811 -0.0906,-0.199275 l -1.16848,-1.349639 c 0.18116,-0.172102 1.25001,-1.204711 1.25001,-1.512683 0,-0.06341 -0.0362,-0.117753 -0.11776,-0.181159 l -1.18659,-0.94203 c -0.0996,-0.08152 -0.18116,-0.117754 -0.25363,-0.117754 -0.0815,0 -0.14491,0.04529 -0.20832,0.108696 l -0.94203,0.951088 -0.86957,-1.014494 c -0.0815,-0.09964 -0.19021,-0.163044 -0.30797,-0.163044 -0.0634,0 -0.12681,0.01812 -0.199273,0.05435 l -1.367755,0.706523 c -0.108696,0.05435 -0.18116,0.135869 -0.18116,0.226449 0,0.06341 0.02717,0.13587 0.09964,0.217392 l 1.204711,1.403986 c -0.534421,0.498189 -1.123189,1.005436 -1.431161,1.277176 -0.07246,0.06341 -0.09964,0.126811 -0.09964,0.190217 0,0.07246 0.04529,0.153986 0.144927,0.235508 l 1.068842,0.860508 c 0.06341,0.05435 0.126812,0.07246 0.181159,0.07246 0.09058,0 0.172102,-0.04529 0.27174,-0.108696 0.353259,-0.244566 0.83333,-0.570653 1.26812,-0.905798 l 0.9058,1.050725 c 0.0996,0.108696 0.18116,0.153986 0.27174,0.153986 0.0725,0 0.15398,-0.02717 0.26267,-0.09058 z"
         id="text25"
         style="font-size:9.05798px;font-family:'FOT-Yuruka Std';-inkscape-font-specification:'FOT-Yuruka Std';fill:#9955ff;stroke:#766c85;stroke-width:0.0212229;stroke-linejoin:round;stroke-opacity:0.960784"
         aria-label="M-x"
         mask="none" /><path
         d="m 55.746597,130.8792 c 0.08467,0 0.141112,-0.0776 0.141112,-0.15522 v -0.84667 c 0,-0.0917 -0.04939,-0.16933 -0.148167,-0.16933 h -0.543278 l 0.04939,-1.00895 h 0.500944 c 0.08467,0 0.141112,-0.0705 0.141112,-0.15522 v -0.84667 c 0,-0.0917 -0.04939,-0.16933 -0.148167,-0.16933 h -0.430389 c 0.02822,-0.55034 0.04939,-0.9525 0.04939,-1.02306 v -0.0141 c 0,-0.0494 -0.04233,-0.11289 -0.112889,-0.11994 -0.07761,-0.007 -0.973668,-0.0494 -1.072445,-0.0494 H 54.1591 c -0.05644,0 -0.112889,0.0564 -0.119944,0.11289 l -0.05645,1.10066 h -0.663222 v -1.06539 c 0,-0.0635 -0.04233,-0.127 -0.127,-0.127 H 52.12004 c -0.0635,0 -0.127001,0.0564 -0.127001,0.127 v 1.06539 h -0.606778 c -0.05644,0 -0.127,0.0423 -0.127,0.127 v 0.91017 c 0,0.0635 0.0635,0.127 0.127,0.127 h 0.606778 v 1.016 h -0.606778 c -0.05644,0 -0.127,0.0423 -0.127,0.127 v 0.91017 c 0,0.0635 0.0635,0.127 0.127,0.127 h 0.606778 v 1.15006 c 0,0.0847 0.07761,0.14111 0.162278,0.14111 h 1.00189 c 0.09172,0 0.169333,-0.0494 0.169333,-0.14817 v -1.143 h 0.479778 l -0.05644,1.11478 v 0.0141 c 0,0.0705 0.07056,0.127 0.148167,0.13405 0.105833,0 0.9525,0.0423 1.008945,0.0494 0.08467,0 0.169333,-0.0423 0.169333,-0.13405 l 0.0635,-1.17828 z m -1.876779,-1.17122 -0.543278,0.007 -0.0071,-1.016 h 0.599722 z m 7.069676,0.4445 c 0,-0.91723 -0.670279,-2.13784 -2.229557,-2.13784 -1.241779,0 -2.328335,0.75495 -2.328335,2.20839 0,1.24178 1.008945,2.07434 2.159001,2.07434 1.00189,0 2.398891,-0.76906 2.398891,-2.14489 z m -2.229557,0.79727 c -0.402167,0 -0.783168,-0.32455 -0.783168,-0.81138 0,-0.3175 0.169334,-0.81845 0.762001,-0.81845 0.719667,0 0.747889,0.68439 0.747889,0.81845 0,0.40216 -0.225778,0.81138 -0.726722,0.81138 z m 4.642552,1.19945 c 0.07761,0 0.141111,-0.0635 0.141111,-0.14111 v -0.0141 l -0.134056,-2.49767 c 0.112889,-0.0282 0.211667,-0.0423 0.310445,-0.0423 0.119945,0 0.239889,0.0212 0.352778,0.0564 0.02822,0.007 0.05644,0.0141 0.07761,0.0141 0.08467,0 0.155223,-0.0494 0.176389,-0.14817 l 0.204611,-0.99483 c 0.0071,-0.0353 0.01411,-0.0635 0.01411,-0.0917 0,-0.0847 -0.04233,-0.14111 -0.148167,-0.16933 -0.218723,-0.0494 -0.451556,-0.0776 -0.691445,-0.0776 -0.352778,0 -0.719667,0.0565 -1.100667,0.17639 l -0.818445,0.0423 c -0.07761,0 -0.141112,0.0705 -0.141112,0.15522 l 0.197556,3.66889 c 0,0.0847 0.07056,0.14111 0.155222,0.14111 z m 2.144885,1.50989 c -0.0071,0.0282 -0.01411,0.0706 -0.01411,0.11289 0,0.0564 0.01411,0.11289 0.07761,0.13405 0.373944,0.14817 0.783167,0.22578 1.192389,0.22578 1.100668,0 2.180168,-0.58561 2.469446,-2.08139 0.204612,-1.05833 0.211667,-2.34244 0.225778,-3.58422 0,-0.10584 -0.07055,-0.19756 -0.183444,-0.20461 -0.162278,-0.007 -1.31939,-0.0847 -1.31939,-0.0847 h -0.03528 c -0.0635,0 -0.127,0.0141 -0.148167,0.0917 -0.275167,-0.11994 -0.599722,-0.18344 -0.938389,-0.18344 -1.488723,0 -1.996724,1.03716 -1.996724,1.89089 0,1.31233 0.980723,2.18017 2.060224,2.18017 0.225778,0 0.465667,-0.0423 0.684389,-0.11289 -0.169333,0.56444 -0.515056,0.90311 -1.107723,0.90311 -0.155222,0 -0.324555,-0.0212 -0.515056,-0.0706 -0.01411,0 -0.02822,-0.007 -0.04233,-0.007 -0.07761,0 -0.155222,0.0494 -0.183445,0.14111 z m 2.20839,-2.90689 c -0.112889,0.0917 -0.338667,0.16933 -0.508,0.16933 -0.62089,0 -0.733779,-0.57855 -0.733779,-0.85372 0,-0.39511 0.246945,-0.75495 0.691445,-0.75495 0.303389,0 0.578556,0.17639 0.606778,0.50801 0,0.3175 -0.0071,0.62794 -0.02117,0.91016 z m 7.154335,0.53622 c 0.01411,-0.0282 0.02117,-0.0494 0.02117,-0.0635 0,-0.0705 -0.07761,-0.11289 -0.148167,-0.14817 -0.225777,-0.11994 -0.303389,-0.42333 -0.303389,-0.84666 0,-0.46567 0.09878,-1.0795 0.197556,-1.72156 v -0.0353 c 0,-0.0847 -0.04939,-0.17639 -0.232833,-0.1905 l -1.220612,-0.10583 h -0.03528 c -0.08467,0 -0.148167,0.0212 -0.1905,0.0706 -0.275167,-0.11995 -0.62089,-0.19756 -0.973668,-0.19756 -1.397,0 -1.996723,1.22061 -1.996723,2.06728 0,1.13594 1.016001,2.03906 2.194279,2.03906 0.359834,0 0.740834,-0.0847 1.107723,-0.27517 0.352778,0.33161 0.846667,0.4445 0.917223,0.4445 0.09172,0 0.162278,-0.0635 0.225778,-0.18345 z m -2.06728,-0.51505 c -0.162277,0.0705 -0.3175,0.0988 -0.451555,0.0988 -0.458612,0 -0.733779,-0.33866 -0.733779,-0.73377 0,-0.35984 0.246945,-0.79023 0.691445,-0.79023 0.204611,0 0.395112,0.0988 0.479778,0.23989 -0.01411,0.21167 -0.02117,0.40217 -0.02117,0.58561 0,0.21873 0.01411,0.41628 0.03528,0.59973 z m 7.154341,-0.508 c 0,-1.34762 -1.086556,-2.22251 -2.518835,-2.22251 -0.254,0 -0.515056,0.0282 -0.790223,0.0847 l -0.790222,-0.0423 h -0.01411 c -0.07056,0 -0.134056,0.0635 -0.141112,0.14111 l -0.1905,3.66889 c 0,0.0847 0.05644,0.14817 0.141111,0.15522 l 1.411113,0.0706 h 0.01411 c 0.07055,0 0.134055,-0.0635 0.134055,-0.13406 l 0.134056,-2.56117 c 0.515056,0.0282 0.874889,0.33867 0.874889,1.0795 v 0.23989 c 0,1.25589 1.12889,1.62984 1.25589,1.62984 0.0635,0 0.134056,-0.0212 0.204611,-0.0776 0,0 0.698501,-0.50095 0.698501,-0.51506 0.04939,-0.0353 0.07056,-0.0776 0.07056,-0.11994 0,-0.0776 -0.07056,-0.14817 -0.112889,-0.18345 -0.289278,-0.26811 -0.381,-0.58561 -0.381,-0.98072 z m 2.794008,1.87677 c 0.07055,-0.007 0.134056,-0.0706 0.134056,-0.14111 v -0.0141 l -0.17639,-3.44311 c 0,-0.0706 -0.0635,-0.13406 -0.134055,-0.13406 h -0.01411 l -1.411112,0.0706 c -0.08467,0.007 -0.141111,0.0705 -0.141111,0.15522 l 0.176389,3.43606 c 0.0071,0.0776 0.0635,0.14111 0.141111,0.14111 h 0.01411 z m 0.07055,-4.8895 c 0,-0.57855 -0.465667,-1.04422 -1.037167,-1.04422 -0.578556,0 -1.044223,0.46567 -1.044223,1.04422 0,0.5715 0.465667,1.03717 1.044223,1.03717 0.5715,0 1.037167,-0.46567 1.037167,-1.03717 z m 3.704164,5.00239 c 0.162278,0 0.218723,-0.0917 0.225778,-0.21872 l 0.04939,-0.90311 v -0.0212 c 0,-0.11994 -0.07055,-0.21872 -0.225778,-0.22578 l -0.973667,-0.0423 c -0.02822,0 -0.04233,-0.007 -0.04233,-0.0212 0,-0.0141 0.0071,-0.0282 0.03528,-0.0564 0.388056,-0.38806 0.804334,-0.79022 1.00189,-1.00894 0.09878,-0.10584 0.148167,-0.22578 0.155222,-0.35984 l 0.04939,-0.84667 v -0.0212 c 0,-0.23989 -0.282222,-0.254 -0.359833,-0.254 l -2.476502,-0.13406 h -0.01411 c -0.119945,0 -0.211667,0.0847 -0.218723,0.23989 l -0.04939,0.90311 v 0.007 c 0,0.14816 0.162277,0.19755 0.239889,0.19755 l 0.867833,0.0423 c 0.02822,0 0.04939,0.007 0.04939,0.0212 0,0.0282 -0.677333,0.762 -1.150056,1.16417 -0.07761,0.0635 -0.141111,0.14817 -0.148167,0.28222 l -0.04939,0.86078 v 0.0353 c 0,0.11289 0.03528,0.19756 0.225778,0.20461 l 2.786947,0.15522 z m 3.351396,0.0564 c 0.204611,0 0.296333,-0.0988 0.352778,-0.21167 0.105833,-0.23989 0.289278,-0.71967 0.289278,-0.79022 0,-0.11995 -0.119945,-0.18345 -0.218723,-0.18345 h -0.01411 c -0.04939,0.007 -0.105833,0.007 -0.155222,0.007 -0.881945,0 -1.248834,-0.56445 -1.248834,-1.06539 0,-0.43744 0.282222,-0.73378 0.620889,-0.73378 0.296333,0 0.430389,0.22578 0.430389,0.28928 0,0.0988 -0.04939,0.11289 -0.416278,0.19756 -0.09172,0.0212 -0.148167,0.0564 -0.148167,0.13405 0,0.0282 0.134056,0.48683 0.218723,0.71967 0.02822,0.0847 0.0635,0.13405 0.176389,0.13405 0.366889,-0.0141 0.889,-0.0917 1.220612,-0.20461 0.416278,-0.14111 0.550333,-0.40922 0.550333,-0.73378 0,-0.23283 -0.07761,-1.79211 -1.82739,-1.79211 -1.608667,0 -2.321279,1.05834 -2.321279,2.06728 0,1.07245 0.804334,2.16606 2.405946,2.16606 z"
         id="text26"
         style="font-size:7.05556px;font-family:'FOT-Yuruka Std';-inkscape-font-specification:'FOT-Yuruka Std';fill:#5f5fd3;stroke:#766c85;stroke-width:0;stroke-linejoin:round;stroke-opacity:0.960784"
         aria-label="#organize"
         mask="none" /><path
         d="m 126.89573,102.40718 c 0.0494,0.0212 0.0917,0.0282 0.127,0.0282 0.0847,0 0.14816,-0.0423 0.21872,-0.11994 2.88572,-3.506618 3.42195,-4.953007 3.42195,-5.058841 0,-0.0635 -0.0423,-0.112889 -0.127,-0.155222 l -1.05128,-0.543278 c -0.0706,-0.04233 -0.13406,-0.05645 -0.17639,-0.05645 -0.0776,0 -0.127,0.04233 -0.16933,0.112889 -0.34573,0.543278 -0.74789,1.171223 -1.16417,1.799168 l -0.83961,-1.897946 c -0.0494,-0.119944 -0.14111,-0.211666 -0.26811,-0.211666 -0.0282,0 -0.0564,0.0071 -0.0847,0.01411 l -1.12184,0.331611 c -0.10583,0.02822 -0.1905,0.09172 -0.1905,0.1905 0,0.03528 0.0141,0.07761 0.0353,0.127 l 1.31939,2.984502 c 0.0212,0.04233 0.0353,0.07761 0.0564,0.09878 l -1.10773,1.64395 c -0.0353,0.0494 -0.0564,0.0988 -0.0564,0.14816 0,0.0706 0.0494,0.127 0.15522,0.16934 z m 8.636,-4.021671 c 0,-0.917223 -0.67028,-2.137835 -2.22956,-2.137835 -1.24178,0 -2.32833,0.754945 -2.32833,2.20839 0,1.241779 1.00894,2.074336 2.159,2.074336 1.00189,0 2.39889,-0.769057 2.39889,-2.144891 z m -2.22956,0.797278 c -0.40216,0 -0.78317,-0.324556 -0.78317,-0.811389 0,-0.317501 0.16934,-0.818445 0.76201,-0.818445 0.71966,0 0.74788,0.684389 0.74788,0.818445 0,0.402167 -0.22577,0.811389 -0.72672,0.811389 z m 7.0485,1.213553 c 0.0776,0 0.14817,-0.0564 0.15522,-0.14111 l 0.1905,-3.668889 c 0,-0.08467 -0.0564,-0.155222 -0.14111,-0.155222 l -1.40405,-0.07761 c -0.0776,0 -0.14817,0.05645 -0.15523,0.141112 l -0.127,2.427112 c -0.17639,0.08467 -0.34572,0.134056 -0.48683,0.134056 -0.29633,0 -0.508,-0.211667 -0.53622,-0.818445 -0.0423,-0.839612 -0.0564,-1.220612 -0.0988,-1.693334 -0.007,-0.08467 -0.0635,-0.155223 -0.20461,-0.155223 -0.11995,0 -1.21356,0.07761 -1.22061,0.09172 -0.0847,0.0071 -0.18345,0.0635 -0.18345,0.352778 0.007,0.451555 0.0212,1.326445 0.0423,1.785056 0.0635,1.312334 0.8255,1.862669 1.80623,1.862669 0.31044,0 0.64205,-0.0564 0.98072,-0.16228 z m 3.04094,-0.0141 c 0.0776,0 0.14111,-0.0635 0.14111,-0.14111 v -0.0141 l -0.13405,-2.497668 c 0.11289,-0.02822 0.21166,-0.04233 0.31044,-0.04233 0.11995,0 0.23989,0.02117 0.35278,0.05644 0.0282,0.0071 0.0564,0.01411 0.0776,0.01411 0.0847,0 0.15522,-0.04939 0.17639,-0.148167 l 0.20461,-0.994834 c 0.007,-0.03528 0.0141,-0.0635 0.0141,-0.09172 0,-0.08467 -0.0423,-0.141111 -0.14816,-0.169334 -0.21873,-0.04939 -0.45156,-0.07761 -0.69145,-0.07761 -0.35278,0 -0.71967,0.05644 -1.10067,0.176389 l -0.81844,0.04233 c -0.0776,0 -0.14111,0.07055 -0.14111,0.155222 l 0.19755,3.668892 c 0,0.0847 0.0706,0.14111 0.15523,0.14111 z"
         id="text27"
         style="font-size:7.05556px;font-family:'FOT-Yuruka Std';-inkscape-font-specification:'FOT-Yuruka Std';fill:#5f5fd3;stroke:#766c85;stroke-width:0;stroke-linejoin:round;stroke-opacity:0.960784"
         transform="rotate(12.38051)"
         aria-label="your"
         mask="none" /><path
         d="m 110.99931,146.34719 c 0.0776,0 0.14111,-0.0635 0.14111,-0.14112 v -5.76439 c 0,-0.0847 -0.0635,-0.14816 -0.14111,-0.14816 h -1.41816 c -0.0776,0 -0.14112,0.0635 -0.14112,0.14816 v 5.76439 c 0,0.0776 0.0635,0.14112 0.14112,0.14112 z m 2.921,-0.0282 c 0.0706,-0.007 0.13406,-0.0705 0.13406,-0.14111 v -0.0141 l -0.17639,-3.44311 c 0,-0.0706 -0.0635,-0.13406 -0.13406,-0.13406 h -0.0141 l -1.41111,0.0706 c -0.0847,0.007 -0.14111,0.0705 -0.14111,0.15522 l 0.17639,3.43606 c 0.007,0.0776 0.0635,0.14111 0.14111,0.14111 h 0.0141 z m 0.0706,-4.8895 c 0,-0.57856 -0.46567,-1.04422 -1.03717,-1.04422 -0.57856,0 -1.04422,0.46566 -1.04422,1.04422 0,0.5715 0.46566,1.03717 1.04422,1.03717 0.5715,0 1.03717,-0.46567 1.03717,-1.03717 z m 3.09033,4.69195 c -0.0564,-0.64911 -0.11289,-1.48873 -0.14111,-2.24367 l 0.49389,0.0212 h 0.0141 c 0.0776,0 0.13405,-0.0635 0.14111,-0.13406 l 0.0847,-1.17122 c 0,-0.0847 -0.0635,-0.15522 -0.14111,-0.15522 l -0.59972,-0.0353 c 0,-0.67028 0.50095,-0.79023 0.86078,-0.79023 h 0.0212 c 0.0917,0 0.20461,-0.0705 0.21872,-0.18344 l 0.127,-0.80433 v -0.0282 c 0,-0.0705 -0.0212,-0.17638 -0.11289,-0.19755 -0.22578,-0.0706 -0.48683,-0.11289 -0.75495,-0.11289 -0.89605,0 -1.86972,0.46567 -2.00377,1.77095 l -0.0212,0.26105 -0.40922,-0.0212 c -0.0847,0 -0.14817,0.0635 -0.15523,0.14112 l -0.0847,1.17122 c 0,0.0776 0.0635,0.14817 0.14111,0.15522 l 0.508,0.0282 c 0.0212,0.83961 0.0776,1.73567 0.10583,2.43417 0.007,0.0988 0.0776,0.18345 0.18345,0.18345 h 0.0141 c 0.16228,0 1.31939,-0.0776 1.31939,-0.0776 0.0917,0 0.1905,-0.0212 0.1905,-0.17638 z m 3.57012,0.36689 c 0.20461,0 0.29633,-0.0988 0.35277,-0.21167 0.10584,-0.23989 0.28928,-0.71967 0.28928,-0.79022 0,-0.11995 -0.11994,-0.18345 -0.21872,-0.18345 h -0.0141 c -0.0494,0.007 -0.10584,0.007 -0.15522,0.007 -0.88195,0 -1.24884,-0.56445 -1.24884,-1.06539 0,-0.43745 0.28222,-0.73378 0.62089,-0.73378 0.29633,0 0.43039,0.22578 0.43039,0.28928 0,0.0988 -0.0494,0.11289 -0.41628,0.19755 -0.0917,0.0212 -0.14816,0.0564 -0.14816,0.13406 0,0.0282 0.13405,0.48683 0.21872,0.71967 0.0282,0.0847 0.0635,0.13405 0.17639,0.13405 0.36689,-0.0141 0.889,-0.0917 1.22061,-0.20461 0.41628,-0.14111 0.55033,-0.40922 0.55033,-0.73378 0,-0.23283 -0.0776,-1.79211 -1.82739,-1.79211 -1.60867,0 -2.32128,1.05833 -2.32128,2.06728 0,1.07244 0.80434,2.16606 2.40595,2.16606 z"
         id="text28"
         style="font-size:7.05556px;font-family:'FOT-Yuruka Std';-inkscape-font-specification:'FOT-Yuruka Std';fill:#5f5fd3;stroke:#766c85;stroke-width:0;stroke-linejoin:round;stroke-opacity:0.960784"
         transform="rotate(-6.616744)"
         aria-label="life"
         mask="none" /><path
         d="m 165.53778,133.4687 c 0.0776,0 0.13406,-0.0565 0.13406,-0.13406 v -3.10444 c 0,-0.0776 -0.0565,-0.14112 -0.13406,-0.14112 h -0.93133 c 0.9525,-0.37394 1.87678,-0.80433 2.43417,-1.12889 0.0564,-0.0353 0.0917,-0.10583 0.0917,-0.16933 0,-0.0212 -0.007,-0.0423 -0.0141,-0.0564 l -0.74084,-1.24884 c -0.0282,-0.0494 -0.11289,-0.0847 -0.18344,-0.0847 -0.0212,0 -0.0423,0.007 -0.0635,0.0141 -1.15006,0.56444 -3.12561,1.57339 -4.54378,2.12372 -0.0494,0.0212 -0.0847,0.0706 -0.0847,0.127 0,0.0212 0.007,0.0353 0.0141,0.0564 l 0.41628,1.05833 c 0.0212,0.0635 0.0776,0.0917 0.14111,0.0917 0.0847,0 0.85373,-0.16228 1.905,-0.54328 v 3.00567 c 0,0.0776 0.0635,0.13406 0.14111,0.13406 z m 7.85284,-2.32128 c 0.0776,0 0.16933,-0.0635 0.16933,-0.14817 v -1.27705 c 0,-0.0917 -0.0917,-0.16228 -0.16933,-0.16228 l -4.79073,-0.007 c -0.0776,0 -0.16933,0.0706 -0.16933,0.15522 v 1.28412 c 0,0.0917 0.0988,0.16227 0.17639,0.16227 z m 5.12939,-1.47461 c 0.0705,0 0.0988,0.0353 0.0988,0.10583 0,0.0564 -0.0635,0.508 -0.11288,0.74083 -0.007,0.0212 -0.007,0.0353 -0.007,0.0564 0,0.0705 0.0353,0.14111 0.13406,0.16933 0.21166,0.0776 0.98072,0.24695 1.00189,0.24695 0.10583,0 0.15522,-0.0635 0.21872,-0.14817 0.52211,-0.70556 0.73378,-1.68628 0.73378,-2.03906 0,-0.50094 -0.49389,-0.68439 -0.85373,-0.68439 -0.0353,0 -0.0635,0.007 -0.0917,0.007 l -4.43089,0.40922 c -0.0776,0.007 -0.14111,0.0706 -0.14111,0.14817 v 0.0141 l 0.11289,1.18533 c 0.007,0.0776 0.0705,0.13406 0.14111,0.13406 h 0.0141 l 3.16795,-0.34572 z m 1.35466,2.34244 c 0.0282,-0.0423 0.0423,-0.0847 0.0423,-0.127 0,-0.0776 -0.0494,-0.15522 -0.127,-0.21872 -0.35984,-0.26811 -1.91206,-0.83256 -2.159,-0.83256 -0.11289,0 -0.1905,0.0776 -0.26106,0.15523 l -0.635,0.72672 c -0.0212,0.0212 -0.0282,0.0494 -0.0282,0.0776 0,0.0706 0.0705,0.14817 0.15522,0.19756 0.28928,0.1905 1.46756,0.89605 1.86972,1.12889 0.0494,0.0282 0.0988,0.0494 0.14817,0.0494 0.0565,0 0.11995,-0.0282 0.19756,-0.127 z"
         id="text219"
         style="font-size:7.05556px;font-family:'FOT-Yuruka Std';-inkscape-font-specification:'FOT-Yuruka Std';display:inline;fill:#9955ff;stroke:#766c85;stroke-width:0;stroke-linejoin:round;stroke-opacity:0.960784"
         aria-label="イーマ"
         mask="none" /><path
         d="m 114.4335,196.33362 c 0.0212,0.007 0.0494,0.0141 0.0706,0.0141 0.0494,0 0.0988,-0.0212 0.127,-0.0706 1.34055,-1.13594 2.10255,-3.11856 2.10255,-3.35139 0,-0.0494 -0.0212,-0.0988 -0.0776,-0.127 l -0.95955,-0.42333 c -0.0212,-0.007 -0.0423,-0.0141 -0.0635,-0.0141 -0.0494,0 -0.10584,0.0282 -0.13406,0.0776 -0.0706,0.1905 -0.16933,0.41627 -0.28222,0.65616 -0.10584,-0.28222 -0.29634,-0.59266 -0.41628,-0.76905 -0.0494,-0.0706 -0.11289,-0.0917 -0.18345,-0.0917 -0.0212,0 -0.0423,0.007 -0.0635,0.007 l -0.79727,0.11995 c -0.0635,0.007 -0.0917,0.0705 -0.0917,0.14111 0,0.0353 0.0917,0.41627 0.33867,1.12889 0.0212,0.0776 0.0423,0.11994 0.14111,0.11994 0.0212,0 0.0494,0 0.0776,-0.007 l 0.73378,-0.127 c -0.38805,0.76905 -0.89605,1.60866 -1.397,2.19427 -0.0212,0.0212 -0.0282,0.0494 -0.0282,0.0706 0,0.0635 0.0423,0.11994 0.0917,0.14111 z m -0.71261,-2.31423 c 0.10583,-0.0141 0.13405,-0.0917 0.13405,-0.17639 0,-0.26105 -0.28222,-0.81139 -0.47272,-1.08655 -0.0494,-0.0776 -0.11994,-0.0988 -0.18344,-0.0988 -0.0212,0 -0.0423,0.007 -0.0635,0.007 l -0.8255,0.0988 c -0.0635,0.007 -0.0988,0.0635 -0.0988,0.14111 0,0.0282 0,0.0494 0.3175,1.12889 0.0282,0.0776 0.0494,0.13406 0.15522,0.13406 0.0212,0 0.0423,-0.007 0.0635,-0.007 z m 6.20183,2.23661 c 0.0494,0.0494 0.0917,0.0706 0.14111,0.0706 0.33867,0 3.66184,-1.98261 4.0499,-4.2545 0.007,-0.0423 0.0141,-0.0847 0.0141,-0.127 0,-0.42334 -0.37395,-0.67734 -0.66323,-0.6985 l -2.20133,-0.16934 c -0.26811,-0.43744 -0.3175,-0.51505 -0.40922,-0.51505 -0.0494,0 -0.0917,0.0212 -0.127,0.0494 -0.47978,0.34572 -1.23473,0.83255 -1.9685,1.0795 -0.0635,0.0212 -0.10584,0.0635 -0.10584,0.127 0,0.0282 0.0141,0.0705 0.0423,0.11289 l 0.60677,0.96661 c 0.0494,0.0705 0.10584,0.0917 0.17639,0.0917 0.15523,0 0.70556,-0.16933 1.59456,-0.55739 l 0.79728,0.0635 c 0.0847,0.007 0.13405,0.0423 0.13405,0.0988 0,0.18344 -1.38289,1.8415 -2.7305,2.68817 -0.0776,0.0564 -0.11289,0.10583 -0.11289,0.15522 0,0.0353 0.0141,0.0635 0.0494,0.0988 z m 5.55978,0.0353 c 0.0635,0.0776 0.127,0.10584 0.1905,0.10584 0.0635,0 0.11995,-0.0212 0.18345,-0.0423 1.88383,-0.64911 3.4925,-2.73755 3.65478,-4.48733 0,-0.0282 0.007,-0.0494 0.007,-0.0776 0,-0.47272 -0.43744,-0.75494 -0.75494,-0.78316 l -2.81517,-0.21872 h -0.0141 c -0.0776,0 -0.14111,0.0564 -0.14817,0.13405 l -0.10583,1.16417 v 0.0141 c 0,0.0776 0.0564,0.14111 0.13405,0.14817 l 1.49578,0.127 c 0.10584,0.007 0.15523,0.0494 0.15523,0.13405 0,0.35278 -1.05834,2.08139 -2.49767,2.794 -0.0988,0.0423 -0.14111,0.0917 -0.14111,0.14817 0,0.0353 0.0212,0.0706 0.0494,0.10583 z m 2.85045,-1.15711 c -0.0282,0.0353 -0.0423,0.0706 -0.0423,0.0988 0,0.0564 0.0494,0.0917 0.10583,0.127 0.35278,0.21167 1.16417,0.71261 1.54517,0.95955 0.0353,0.0212 0.0847,0.0423 0.127,0.0423 0.0494,0 0.0917,-0.0212 0.127,-0.0776 0.18344,-0.30339 0.56444,-0.90311 0.73378,-1.19239 0.0282,-0.0494 0.0494,-0.0917 0.0494,-0.13406 0,-0.0564 -0.0353,-0.10583 -0.10583,-0.14817 -0.86783,-0.508 -1.72861,-0.61383 -1.78506,-0.61383 -0.0635,0 -0.127,0.0212 -0.17638,0.0917 z"
         id="text220"
         style="font-size:7.05556px;font-family:'FOT-Yuruka Std';-inkscape-font-specification:'FOT-Yuruka Std';fill:#9955ff;stroke:#766c85;stroke-width:0;stroke-linejoin:round;stroke-opacity:0.960784"
         transform="rotate(-24.901255)"
         aria-label="ックス"
         mask="none" /><path
         d="m 164.58706,70.560939 c 0.0648,0.08914 0.12563,0.132541 0.20262,0.144688 0.52792,0.08329 6.19574,-2.189973 7.35938,-5.63601 0.0214,-0.06425 0.0428,-0.128512 0.0533,-0.194503 0.10411,-0.659902 -0.41634,-1.147807 -0.86206,-1.251947 l -3.38984,-0.805342 c -0.31036,-0.747835 -0.36826,-0.880964 -0.51124,-0.903521 -0.077,-0.01214 -0.14819,0.0104 -0.21012,0.04575 -0.83291,0.420927 -2.12946,0.994148 -3.33403,1.198631 -0.10419,0.01738 -0.18059,0.07296 -0.19621,0.171942 -0.007,0.044 0.004,0.113491 0.0382,0.18639 l 0.70814,1.656002 c 0.0597,0.122127 0.14242,0.169006 0.25241,0.186358 0.24196,0.03817 1.14147,-0.09044 2.6227,-0.476715 l 1.2272,0.295061 c 0.13025,0.03182 0.19856,0.09896 0.18468,0.186947 -0.0451,0.285958 -2.60856,2.530473 -4.91748,3.518854 -0.13486,0.06891 -0.202,0.137211 -0.21415,0.214201 -0.009,0.05499 0.006,0.102484 0.0527,0.166125 z m 8.93653,-7.416167 c 0.0764,-0.05559 0.13081,-0.114626 0.14122,-0.180618 0.009,-0.05499 -0.004,-0.113491 -0.0619,-0.17886 l -0.0295,-0.02721 -0.54595,-0.683554 c -0.0683,-0.06714 -0.13836,-0.123278 -0.22635,-0.137159 -0.055,-0.0087 -0.11171,-0.0064 -0.17364,0.02896 l -0.6286,0.340441 c -0.0492,0.02605 -0.13486,0.06891 -0.14701,0.145889 -0.007,0.044 0.006,0.102484 0.0527,0.166124 l 0.58416,0.869939 c 0.0464,0.06366 0.1054,0.11807 0.18236,0.130218 0.044,0.0069 0.10245,-0.0064 0.16439,-0.0417 z m -2.11916,0.07146 c 0.19044,0.0075 0.27784,-0.04634 0.29693,-0.167324 0.005,-0.03303 0.0104,-0.066 0.005,-0.100722 l -0.0568,-0.854382 c -0.0119,-0.137212 -0.10129,-0.286521 -0.25531,-0.310809 l -0.033,-0.0052 -0.8185,-0.02768 c -0.12445,0.0029 -0.21938,0.03303 -0.24019,0.165001 -0.007,0.044 -0.001,0.07875 0.001,0.135452 l 0.0971,0.883335 c 0.0155,0.115199 0.0839,0.182332 0.23793,0.20662 l 0.077,0.01215 z m 10.9104,6.579603 c 0.0416,-0.04979 0.0613,-0.103039 0.07,-0.158033 0.0468,-0.296956 -0.38038,-0.589802 -1.05016,-0.988546 0.70376,-0.95982 1.20724,-2.007601 1.3634,-2.997453 0.0139,-0.08798 0.0168,-0.177709 0.0306,-0.265693 0.0723,-0.743832 -0.43546,-1.241 -1.06236,-1.339908 l -0.099,-0.01561 -5.45571,-0.500036 c -0.12099,-0.01909 -0.22459,0.06602 -0.24368,0.187 l -0.004,0.02201 -0.14971,1.734832 c -0.0174,0.109989 0.066,0.224589 0.187,0.243672 l 0.022,0.0034 3.33074,0.32259 0.044,0.0069 c 0.13198,0.02082 0.17077,0.06076 0.15689,0.148745 -0.0382,0.241961 -0.41319,0.904215 -0.57581,1.149087 -0.44112,-0.204857 -1.07498,-0.473945 -1.29495,-0.508649 -0.16498,-0.02603 -0.25411,0.03881 -0.36292,0.156912 l -0.9683,1.064622 c -0.0272,0.02951 -0.0307,0.05152 -0.0359,0.08452 -0.0174,0.10999 0.088,0.228058 0.22058,0.316604 l 0.94303,0.667297 c -0.83171,0.770552 -1.79484,1.373832 -2.73891,1.641956 -0.12966,0.0359 -0.18754,0.116948 -0.20142,0.204937 -0.0156,0.09899 0.0132,0.204859 0.0683,0.281314 l 0.74743,1.121139 c 0.11119,0.152799 0.26919,0.222825 0.37917,0.240177 0.16498,0.02603 1.86098,-0.292553 3.86358,-1.983036 1.00729,0.688707 1.13812,0.788252 1.24811,0.805604 0.088,0.01388 0.18464,-0.02724 0.2952,-0.156326 z m 10.93701,1.83824 c 0.12098,0.01908 0.27958,-0.05734 0.3004,-0.189322 l 0.31407,-1.990704 c 0.0226,-0.142979 -0.10311,-0.275515 -0.22405,-0.294605 l -7.46615,-1.189194 c -0.12099,-0.01909 -0.28132,0.06834 -0.30214,0.200319 l -0.3158,2.001702 c -0.0226,0.142979 0.11407,0.277255 0.23504,0.296343 z"
         id="text229"
         style="font-weight:900;font-size:11.1344px;font-family:'FOT-Yuruka Std';-inkscape-font-specification:'FOT-Yuruka Std Heavy';fill:#5f5fd3;stroke:#766c85;stroke-width:0;stroke-linejoin:round;stroke-opacity:0.960784"
         aria-label="グヌー"
         mask="none" /></g></g></svg>
